<svg width="10" height="10" viewBox="0 0 10 10" fill="none" xmlns="http://www.w3.org/2000/svg">
<path d="M5.00009 0.125244C4.15843 0.125061 3.33106 0.342785 2.59852 0.757226C1.86597 1.17167 1.2532 1.76871 0.819856 2.49023C0.386508 3.21175 0.147344 4.03318 0.125644 4.87455C0.103944 5.71593 0.300447 6.54859 0.696025 7.29149L0.163994 8.88759C0.119924 9.01973 0.113529 9.16154 0.145524 9.29712C0.177519 9.4327 0.246642 9.55669 0.345143 9.65519C0.443644 9.75369 0.567632 9.82281 0.70321 9.85481C0.838787 9.8868 0.980597 9.88041 1.11274 9.83634L2.70884 9.30431C3.36264 9.65205 4.08706 9.84628 4.82713 9.87224C5.5672 9.89821 6.30346 9.75524 6.98002 9.45418C7.65659 9.15312 8.25567 8.70188 8.73181 8.13472C9.20794 7.56756 9.54861 6.89938 9.72796 6.1809C9.9073 5.46242 9.92061 4.71253 9.76687 3.98814C9.61313 3.26375 9.29638 2.5839 8.84066 2.0002C8.38495 1.41651 7.80225 0.9443 7.13679 0.619426C6.47134 0.294551 5.74061 0.125548 5.00009 0.125244ZM2.93759 5.56274C2.82634 5.56274 2.71758 5.52975 2.62508 5.46795C2.53258 5.40614 2.46048 5.31829 2.41791 5.2155C2.37533 5.11272 2.36419 4.99962 2.3859 4.89051C2.4076 4.78139 2.46117 4.68116 2.53984 4.6025C2.61851 4.52383 2.71873 4.47026 2.82785 4.44855C2.93696 4.42685 3.05006 4.43799 3.15285 4.48056C3.25563 4.52314 3.34348 4.59523 3.40529 4.68774C3.4671 4.78024 3.50009 4.88899 3.50009 5.00024C3.50009 5.14943 3.44082 5.2925 3.33533 5.39799C3.22985 5.50348 3.08677 5.56274 2.93759 5.56274ZM5.00009 5.56274C4.88883 5.56274 4.78008 5.52975 4.68758 5.46795C4.59508 5.40614 4.52298 5.31829 4.4804 5.2155C4.43783 5.11272 4.42669 4.99962 4.4484 4.89051C4.4701 4.78139 4.52367 4.68116 4.60234 4.6025C4.68101 4.52383 4.78123 4.47026 4.89035 4.44855C4.99946 4.42685 5.11256 4.43799 5.21535 4.48056C5.31813 4.52314 5.40598 4.59523 5.46779 4.68774C5.5296 4.78024 5.56259 4.88899 5.56259 5.00024C5.56259 5.14943 5.50332 5.2925 5.39783 5.39799C5.29235 5.50348 5.14927 5.56274 5.00009 5.56274ZM7.06259 5.56274C6.95134 5.56274 6.84258 5.52975 6.75008 5.46795C6.65758 5.40614 6.58548 5.31829 6.54291 5.2155C6.50033 5.11272 6.48919 4.99962 6.5109 4.89051C6.5326 4.78139 6.58617 4.68116 6.66484 4.6025C6.74351 4.52383 6.84373 4.47026 6.95285 4.44855C7.06196 4.42685 7.17506 4.43799 7.27785 4.48056C7.38063 4.52314 7.46848 4.59523 7.53029 4.68774C7.5921 4.78024 7.62509 4.88899 7.62509 5.00024C7.62509 5.14943 7.56582 5.2925 7.46033 5.39799C7.35485 5.50348 7.21177 5.56274 7.06259 5.56274Z" fill="white"/>
</svg>
