<svg width="16" height="16" viewBox="0 0 16 16" fill="none" xmlns="http://www.w3.org/2000/svg">
<path d="M8 7.99992C9.84095 7.99992 11.3333 6.50753 11.3333 4.66658C11.3333 2.82564 9.84095 1.33325 8 1.33325C6.15905 1.33325 4.66666 2.82564 4.66666 4.66658C4.66666 6.50753 6.15905 7.99992 8 7.99992Z" stroke="#FFA53D" stroke-linecap="round" stroke-linejoin="round"/>
<path d="M2.27334 14.6667C2.27334 12.0867 4.84 10 8 10C8.64 10 9.26001 10.0867 9.84001 10.2467" stroke="#FFA53D" stroke-linecap="round" stroke-linejoin="round"/>
<path d="M14.6667 11.9999C14.6667 12.2133 14.64 12.4199 14.5867 12.6199C14.5267 12.8866 14.42 13.1466 14.28 13.3733C13.82 14.1466 12.9733 14.6666 12 14.6666C11.3133 14.6666 10.6933 14.4066 10.2267 13.9799C10.0267 13.8066 9.85333 13.5999 9.71999 13.3733C9.47333 12.9733 9.33334 12.4999 9.33334 11.9999C9.33334 11.2799 9.62001 10.6199 10.0867 10.1399C10.5733 9.63993 11.2533 9.33325 12 9.33325C12.7867 9.33325 13.5 9.67326 13.98 10.2199C14.4067 10.6933 14.6667 11.3199 14.6667 11.9999Z" stroke="#FFA53D" stroke-miterlimit="10" stroke-linecap="round" stroke-linejoin="round"/>
<path d="M12.9933 11.9868H11.0067" stroke="#FFA53D" stroke-miterlimit="10" stroke-linecap="round" stroke-linejoin="round"/>
<path d="M12 11.0134V13.0068" stroke="#FFA53D" stroke-miterlimit="10" stroke-linecap="round" stroke-linejoin="round"/>
</svg>
