<svg width="12" height="8" viewBox="0 0 12 8" fill="none" xmlns="http://www.w3.org/2000/svg">
<path d="M11.3083 2.17708L6.40835 7.09167C6.35001 7.15 6.28682 7.19122 6.21876 7.21533C6.15071 7.23983 6.07779 7.25208 6.00001 7.25208C5.92224 7.25208 5.84932 7.23983 5.78126 7.21533C5.71321 7.19122 5.65001 7.15 5.59168 7.09167L0.677098 2.17708C0.540986 2.04097 0.472931 1.87083 0.472931 1.66667C0.472931 1.4625 0.545848 1.2875 0.691681 1.14167C0.837514 0.995833 1.00765 0.922917 1.2021 0.922917C1.39654 0.922917 1.56668 0.995833 1.71251 1.14167L6.00001 5.42917L10.2875 1.14167C10.4236 1.00556 10.5912 0.9375 10.7903 0.9375C10.9898 0.9375 11.1625 1.01042 11.3083 1.15625C11.4542 1.30208 11.5271 1.47222 11.5271 1.66667C11.5271 1.86111 11.4542 2.03125 11.3083 2.17708Z" fill="black" fill-opacity="0.8"/>
</svg>
