<svg width="16" height="16" viewBox="0 0 16 16" fill="none" xmlns="http://www.w3.org/2000/svg">
<path d="M5.66667 12.6667H5.33334C2.66667 12.6667 1.33334 12 1.33334 8.66671V5.33337C1.33334 2.66671 2.66667 1.33337 5.33334 1.33337H10.6667C13.3333 1.33337 14.6667 2.66671 14.6667 5.33337V8.66671C14.6667 11.3334 13.3333 12.6667 10.6667 12.6667H10.3333C10.1267 12.6667 9.92667 12.7667 9.8 12.9334L8.8 14.2667C8.36 14.8534 7.64 14.8534 7.2 14.2667L6.2 12.9334C6.09334 12.7867 5.84667 12.6667 5.66667 12.6667Z" stroke="#FFA53D" stroke-miterlimit="10" stroke-linecap="round" stroke-linejoin="round"/>
<path d="M8.064 5.008C7.89867 5.008 7.76 4.952 7.648 4.84C7.536 4.728 7.48 4.58933 7.48 4.424C7.48 4.25867 7.536 4.12 7.648 4.008C7.76 3.896 7.89867 3.84 8.064 3.84C8.224 3.84 8.36 3.896 8.472 4.008C8.584 4.12 8.64 4.25867 8.64 4.424C8.64 4.58933 8.584 4.728 8.472 4.84C8.36 4.952 8.224 5.008 8.064 5.008ZM8.512 5.592V10H7.6V5.592H8.512Z" fill="#FFA53D"/>
</svg>
