<svg width="8" height="10" viewBox="0 0 8 10" fill="none" xmlns="http://www.w3.org/2000/svg">
<path d="M4 5C4.275 5 4.5105 4.902 4.7065 4.706C4.90217 4.51033 5 4.275 5 4C5 3.725 4.90217 3.4895 4.7065 3.2935C4.5105 3.09783 4.275 3 4 3C3.725 3 3.48967 3.09783 3.294 3.2935C3.098 3.4895 3 3.725 3 4C3 4.275 3.098 4.51033 3.294 4.706C3.48967 4.902 3.725 5 4 5ZM4 9.8125C3.93333 9.8125 3.86667 9.8 3.8 9.775C3.73333 9.75 3.675 9.71667 3.625 9.675C2.40833 8.6 1.5 7.60217 0.9 6.6815C0.3 5.7605 0 4.9 0 4.1C0 2.85 0.402167 1.85417 1.2065 1.1125C2.0105 0.370833 2.94167 0 4 0C5.05833 0 5.9895 0.370833 6.7935 1.1125C7.59783 1.85417 8 2.85 8 4.1C8 4.9 7.7 5.7605 7.1 6.6815C6.5 7.60217 5.59167 8.6 4.375 9.675C4.325 9.71667 4.26667 9.75 4.2 9.775C4.13333 9.8 4.06667 9.8125 4 9.8125Z" fill="#FFA53D"/>
</svg>
